<svg width="44" height="43" viewBox="0 0 44 43" fill="none" xmlns="http://www.w3.org/2000/svg">
<path fill-rule="evenodd" clip-rule="evenodd" d="M21.7173 -0.000277219C9.724 -0.000277219 0 9.72372 0 21.7197C0 31.3157 6.22267 39.4557 14.8533 42.3291C15.94 42.5277 16.336 41.8571 16.336 41.2811C16.336 40.7664 16.3173 39.3997 16.3067 37.5877C10.2653 38.8997 8.99067 34.6757 8.99067 34.6757C8.00267 32.1677 6.57867 31.4997 6.57867 31.4997C4.60667 30.1517 6.728 30.1784 6.728 30.1784C8.908 30.3331 10.0547 32.4171 10.0547 32.4171C11.992 35.7357 15.1387 34.7771 16.376 34.2224C16.5733 32.8184 17.1333 31.8611 17.7547 31.3184C12.932 30.7704 7.86133 28.9064 7.86133 20.5837C7.86133 18.2131 8.708 16.2744 10.0973 14.7557C9.87333 14.2064 9.128 11.9984 10.3093 9.00772C10.3093 9.00772 12.1333 8.42372 16.2827 11.2344C18.0147 10.7531 19.8733 10.5117 21.72 10.5037C23.564 10.5117 25.4227 10.7531 27.1573 11.2344C31.304 8.42372 33.124 9.00772 33.124 9.00772C34.3093 11.9984 33.564 14.2064 33.34 14.7557C34.732 16.2744 35.5733 18.2131 35.5733 20.5837C35.5733 28.9277 30.4947 30.7637 25.656 31.3011C26.436 31.9717 27.1307 33.2971 27.1307 35.3237C27.1307 38.2264 27.104 40.5691 27.104 41.2811C27.104 41.8624 27.4947 42.5384 28.5973 42.3264C37.2213 39.4477 43.4387 31.3131 43.4387 21.7197C43.4387 9.72372 33.7133 -0.000277219 21.7173 -0.000277219Z" fill="white"/>
</svg>
