<svg width="36" height="30" viewBox="0 0 36 30" fill="none" xmlns="http://www.w3.org/2000/svg">
<g clip-path="url(#clip0_106_214)">
<path d="M32.2184 7.54266C32.2402 7.86178 32.2402 8.18089 32.2402 8.50295C32.2402 18.3162 24.866 29.6338 11.382 29.6338V29.628C7.39873 29.6338 3.49825 28.478 0.14502 26.2985C0.724213 26.3691 1.30631 26.4044 1.88986 26.4059C5.19083 26.4088 8.39744 25.2868 10.9944 23.2206C7.85744 23.1603 5.10663 21.0882 4.14566 18.0632C5.24454 18.278 6.37679 18.2338 7.45534 17.9353C4.03534 17.2353 1.57486 14.1912 1.57486 10.6559V10.5618C2.59389 11.1368 3.73486 11.4559 4.90195 11.4912C1.68083 9.31031 0.687923 4.96913 2.63308 1.57501C6.35502 6.21472 11.8465 9.03531 17.7415 9.33384C17.1507 6.75442 17.9578 4.05148 19.8623 2.23825C22.8149 -0.573517 27.4586 -0.429399 30.2341 2.56031C31.8758 2.23237 33.4494 1.62207 34.8894 0.757365C34.3421 2.47648 33.1968 3.93678 31.6668 4.86472C33.1199 4.69119 34.5395 4.29707 35.8765 3.6956C34.8923 5.18972 33.6526 6.49119 32.2184 7.54266Z" fill="#1D9BF0"/>
</g>
<defs>
<clipPath id="clip0_106_214">
<rect width="36" height="30" fill="white"/>
</clipPath>
</defs>
</svg>
